<?xml version="1.0" encoding="utf-8"?>
<!-- Generator: Adobe Illustrator 21.1.0, SVG Export Plug-In . SVG Version: 6.00 Build 0)  -->
<svg version="1.1" id="Layer_1" xmlns="http://www.w3.org/2000/svg" xmlns:xlink="http://www.w3.org/1999/xlink" x="0px" y="0px"
	 viewBox="0 0 28 35" style="enable-background:new 0 0 28 35;" xml:space="preserve">
<style type="text/css">
	.st0{fill:url(#SVGID_1_);}
	.st1{fill:url(#SVGID_2_);}
	.st2{opacity:0.3;fill:#FFFFFF;}
	.st3{opacity:0.62;fill-rule:evenodd;clip-rule:evenodd;fill:#231F20;}
	.st4{fill:#FFFFFF;}
	.st5{font-family:'OpenSans';}
	.st6{font-size:7px;}
</style>
<g>
	<linearGradient id="SVGID_1_" gradientUnits="userSpaceOnUse" x1="14" y1="35" x2="14" y2="0">
		<stop  offset="0" style="stop-color:#DBDCDD"/>
		<stop  offset="0.1357" style="stop-color:#E0E1E2"/>
		<stop  offset="0.5752" style="stop-color:#EDEDEE"/>
		<stop  offset="1" style="stop-color:#F1F1F2"/>
	</linearGradient>
	<polygon class="st0" points="28,35 0,35 0,0 19.6,0 28,8.4 	"/>
	<linearGradient id="SVGID_2_" gradientUnits="userSpaceOnUse" x1="14" y1="11.2" x2="14" y2="0">
		<stop  offset="0" style="stop-color:#C3161C"/>
		<stop  offset="1" style="stop-color:#EC1C24"/>
	</linearGradient>
	<polygon class="st1" points="19.6,0 0,0 0,11.2 28,11.2 28,8.4 	"/>
	<polygon class="st2" points="19.6,8.4 28,8.4 19.6,0 	"/>
	<path class="st3" d="M22.6,26.7c0.6-1.2-1.8-1.6-5.1-1.2c-0.6-0.3-1.1-0.7-1.6-1.1c-1.3-1-2.2-2.7-2.7-4.5c0.3-1.4,0.2-2.7,0.3-4
		c-0.1,0.6-0.2,1.6-0.6,3.1c-0.4-1.7-0.5-3.2-0.3-4c0.1-0.2,0.2-0.4,0.3-0.4c0.2,0.1,0.5,0.4,0.6,1.1c0.2-1.2-0.3-1.1-0.5-1.1
		l-0.4,0c-0.2,0-0.4,0.2-0.5,0.5C11.9,16,12,18,12.6,20c-0.4,1.3-1,2.9-1.9,4.8c-2.3,4.7-4.1,7.1-5.3,7.1c-0.1-0.6,1.1-2.3,2.8-3.6
		c-2.8,1.5-3.4,3.2-3.2,3.6l0.4,0.2c0.8,0.4,2.2-0.7,4.5-4.5c2.1-0.8,4.9-1.3,7.3-1.6c2.4,1.3,5.1,1.7,5.3,0.9
		c-0.6,0.3-2.4-0.1-4.2-1C20.8,25.8,22.7,26,22.6,26.7z M10,27.5c0.4-0.7,0.8-1.4,1.2-2.3c0.9-1.7,1.4-3.1,1.7-4.3
		c0.6,1.5,1.4,2.9,2.5,3.8c0.3,0.3,0.7,0.6,1.1,0.8C14.5,25.9,12.1,26.6,10,27.5z"/>
	<text transform="matrix(1 0 0 1 2.3413 7.9336)" class="st4 st5 st6">PDF</text>
</g>
</svg>
