<?xml version="1.0" encoding="utf-8"?>
<!-- Generator: Adobe Illustrator 21.0.2, SVG Export Plug-In . SVG Version: 6.00 Build 0)  -->
<svg version="1.1" id="Layer_1" xmlns="http://www.w3.org/2000/svg" xmlns:xlink="http://www.w3.org/1999/xlink" x="0px" y="0px"
	 viewBox="0 0 140 41" enable-background="new 0 0 140 41" xml:space="preserve">
<path fill="#6BC533" d="M90.5,7l0.6,0v2.4c-0.2,0-0.4,0-0.8-0.1c-0.4,0-0.6,0.1-0.8,0.2c-0.1,0.2-0.2,0.4-0.2,0.6v0.9h1.9v2h-1.9V22
	h-2.8v-8.9h-1.6v-2h1.6v-0.7c0-1.2,0.2-2,0.6-2.4c0.4-0.7,1.4-1,3-1C90.2,7,90.3,7,90.5,7z"/>
<path fill-rule="evenodd" clip-rule="evenodd" fill="#6BC533" d="M92.8,11h2.9v11h-2.9V11z M95.7,9.7h-2.9V7h2.9V9.7z"/>
<path fill="#6BC533" d="M103.7,10.8l0.2,0v2.9l-0.5,0l-0.3,0c-1.1,0-1.9,0.4-2.3,1.1c-0.2,0.4-0.3,1.1-0.3,2V22h-2.9V11h2.7v1.9
	c0.4-0.7,0.8-1.2,1.1-1.5c0.5-0.5,1.2-0.7,2.1-0.7L103.7,10.8z"/>
<path fill="#6BC533" d="M107.6,18.5c0.1,0.5,0.2,0.9,0.4,1.1c0.3,0.4,1,0.6,2,0.6c0.6,0,1-0.1,1.3-0.3c0.3-0.2,0.5-0.4,0.5-0.8
	s-0.1-0.6-0.4-0.7c-0.3-0.2-1.3-0.5-3-0.9c-1.2-0.3-2.1-0.7-2.6-1.2c-0.5-0.5-0.8-1.1-0.8-2c0-1,0.4-1.9,1.2-2.6
	c0.8-0.7,1.9-1.1,3.3-1.1c1.4,0,2.5,0.3,3.3,0.8c0.9,0.5,1.3,1.5,1.5,2.8h-2.8c0-0.4-0.1-0.7-0.3-0.9c-0.3-0.4-0.8-0.6-1.6-0.6
	c-0.6,0-1.1,0.1-1.3,0.3c-0.3,0.2-0.4,0.4-0.4,0.7c0,0.3,0.1,0.6,0.4,0.7c0.3,0.1,1.3,0.4,3,0.8c1.1,0.3,2,0.7,2.6,1.2
	c0.6,0.5,0.8,1.2,0.8,2.1c0,1.1-0.4,2-1.2,2.7c-0.8,0.7-2,1-3.7,1c-1.7,0-3-0.4-3.8-1.1c-0.8-0.7-1.2-1.7-1.2-2.8H107.6z"/>
<path fill="#6BC533" d="M115.3,13.2v-2.1h1.5V8h2.8v3.1h1.8v2.1h-1.8V19c0,0.5,0.1,0.7,0.2,0.9s0.5,0.2,1,0.2h0.3l0.3,0v2.2
	l-1.3,0.1c-1.3,0-2.3-0.2-2.8-0.7c-0.3-0.3-0.5-0.8-0.5-1.5v-6.8H115.3z"/>
<path fill="#6BC533" d="M92.3,29.9c0.8,0.6,1.2,1.6,1.4,3.1h-1.8c-0.1-0.7-0.3-1.2-0.7-1.7c-0.4-0.4-1-0.7-1.8-0.7
	c-1.1,0-2,0.6-2.5,1.7c-0.3,0.7-0.5,1.6-0.5,2.7c0,1.1,0.2,2,0.7,2.7c0.5,0.7,1.2,1.1,2.1,1.1c0.7,0,1.3-0.2,1.8-0.7
	c0.4-0.5,0.7-1.1,0.9-1.9h1.8c-0.2,1.4-0.7,2.5-1.5,3.2c-0.8,0.7-1.8,1-3.1,1c-1.4,0-2.5-0.5-3.3-1.5c-0.8-1-1.2-2.3-1.2-3.9
	c0-1.9,0.5-3.4,1.4-4.4c0.9-1.1,2.1-1.6,3.5-1.6C90.5,29,91.5,29.3,92.3,29.9z"/>
<path fill="#6BC533" d="M95.2,25.3H97v5.5c0.4-0.5,0.8-0.9,1.2-1.2c0.6-0.4,1.3-0.6,2.2-0.6c1.6,0,2.6,0.5,3.2,1.6
	c0.3,0.6,0.4,1.4,0.4,2.5v6.9h-1.8v-6.8c0-0.8-0.1-1.4-0.3-1.7c-0.3-0.6-0.9-0.9-1.8-0.9c-0.8,0-1.4,0.2-2,0.8
	C97.3,32,97,33,97,34.4v5.7h-1.8V25.3z"/>
<path fill-rule="evenodd" clip-rule="evenodd" fill="#6BC533" d="M112.6,37.6c0.4-0.9,0.7-1.9,0.7-3c0-1-0.2-1.8-0.5-2.5
	c-0.5-1-1.4-1.5-2.6-1.5c-1.1,0-1.9,0.4-2.4,1.3c-0.5,0.8-0.7,1.9-0.7,3.1c0,1.2,0.2,2.1,0.7,2.9c0.5,0.8,1.3,1.2,2.3,1.2
	C111.4,39,112.2,38.5,112.6,37.6z M113.7,30.4c1,0.9,1.4,2.3,1.4,4.1c0,1.7-0.4,3.2-1.2,4.3c-0.8,1.1-2.1,1.7-3.9,1.7
	c-1.5,0-2.6-0.5-3.5-1.5c-0.9-1-1.3-2.4-1.3-4.1c0-1.8,0.5-3.3,1.4-4.3c0.9-1.1,2.1-1.6,3.6-1.6C111.6,29,112.8,29.5,113.7,30.4z"/>
<path fill-rule="evenodd" clip-rule="evenodd" fill="#6BC533" d="M116.8,29.4h1.8v10.8h-1.8V29.4z M116.8,25.3h1.8v2.1h-1.8V25.3z"
	/>
<path fill="#6BC533" d="M127.8,29.9c0.8,0.6,1.2,1.6,1.4,3.1h-1.8c-0.1-0.7-0.3-1.2-0.7-1.7c-0.4-0.4-1-0.7-1.8-0.7
	c-1.1,0-2,0.6-2.5,1.7c-0.3,0.7-0.5,1.6-0.5,2.7c0,1.1,0.2,2,0.7,2.7c0.4,0.7,1.2,1.1,2.1,1.1c0.8,0,1.3-0.2,1.8-0.7
	c0.4-0.5,0.7-1.1,0.9-1.9h1.8c-0.2,1.4-0.7,2.5-1.5,3.2s-1.8,1-3.1,1c-1.4,0-2.5-0.5-3.4-1.5c-0.8-1-1.2-2.3-1.2-3.9
	c0-1.9,0.5-3.4,1.4-4.4c0.9-1.1,2.1-1.6,3.5-1.6C126,29,127,29.3,127.8,29.9z"/>
<path fill-rule="evenodd" clip-rule="evenodd" fill="#6BC533" d="M138.1,33.9c-0.1-0.8-0.2-1.4-0.5-1.9c-0.5-0.9-1.3-1.3-2.4-1.3
	c-0.8,0-1.5,0.3-2.1,0.9c-0.6,0.6-0.8,1.4-0.9,2.3H138.1z M137.5,29.6c0.7,0.4,1.2,0.8,1.6,1.4c0.3,0.5,0.6,1.2,0.7,1.9
	c0.1,0.5,0.2,1.3,0.2,2.4h-7.8c0,1.1,0.3,2,0.8,2.7c0.5,0.7,1.2,1,2.2,1c0.9,0,1.7-0.3,2.2-1c0.3-0.4,0.5-0.8,0.7-1.3h1.8
	c-0.1,0.4-0.2,0.8-0.5,1.3c-0.3,0.5-0.6,0.9-0.9,1.2c-0.5,0.5-1.2,0.9-2,1.1c-0.4,0.1-0.9,0.2-1.5,0.2c-1.3,0-2.4-0.5-3.4-1.5
	c-0.9-1-1.4-2.4-1.4-4.1c0-1.7,0.5-3.2,1.4-4.2c0.9-1.1,2.1-1.6,3.6-1.6C136.1,29.1,136.8,29.3,137.5,29.6z"/>
<g>
	<path fill="#009623" d="M0,10.9h10.5v4.6c2.6-3.5,5.4-5.4,9.8-5.4c7.6,0,11.2,4.5,11.2,12.6v17.5H20V24.7c0-2.9-0.8-5.5-4-5.5
		c-3.5,0-4.5,2.3-4.5,6v14.9H0V10.9z"/>
	<path fill-rule="evenodd" clip-rule="evenodd" fill="#009623" d="M34.4,0h11.5v8.2H34.4V0z M34.4,10.9h11.5v29.2H34.4V10.9z"/>
	<path fill-rule="evenodd" clip-rule="evenodd" fill="#009623" d="M60.7,0H49.2v40.2h10.3V36h0.1c1.4,2.8,4.1,5,8.9,5
		c9.4,0,13.1-7,13.1-15.6c0-8.8-5.2-15.3-12.6-15.3c-3.4,0-6.1,1.1-8.3,3.8V0z M65.2,32.6c-3.8,0-4.8-4-4.8-7.1c0-3,1.4-6.5,4.8-6.5
		c3.7,0,4.9,3.6,4.9,6.7C70.1,29,69,32.6,65.2,32.6z"/>
</g>
</svg>
