<svg xmlns="http://www.w3.org/2000/svg" viewBox="0 0 27 27"><defs><style>.cls-1{fill:#79be43;fill-rule:evenodd;}</style></defs><title>Calendar</title><g id="Layer_2" data-name="Layer 2"><g id="Layer_1-2" data-name="Layer 1"><path class="cls-1" d="M19,22V13H17.44c-.2,1.23-1.13,1.59-2.44,1.56V16h2v6Zm-4.93-3.46a1.94,1.94,0,0,0-1.24-1.9,1.8,1.8,0,0,0,.93-1.7,2.67,2.67,0,0,0-2.89-2.41c-1.65,0-2.9,1-3,3.47H9.74c0-1.22.3-1.84,1.15-1.84a1,1,0,0,1,1,1c0,.85-.91,1-1.93.9v1.44c1.37,0,2.08.08,2.08,1.11a1.14,1.14,0,0,1-1.22,1.18c-.92,0-1.3-.69-1.33-1.76H7.7c0,2.25,1.25,3.38,3.18,3.38A2.92,2.92,0,0,0,14.07,18.54ZM6,3.38c.58.62.08,1.12-.54,1.12A1.86,1.86,0,0,1,4,3.38V1.12A1.86,1.86,0,0,1,5.46,0C6.08,0,6.58.5,6,1.12ZM22,1.12A.83.83,0,0,0,21.13,0,1.14,1.14,0,0,0,20,1.12V3.38A1.14,1.14,0,0,0,21.13,4.5.83.83,0,0,0,22,3.38ZM24,9H2V25H24Zm3-7V27H0V2H3V3.38A2.62,2.62,0,0,0,5.46,5.62c1.24,0,2.24-1,1.54-2.24V2H19V3.38a2.09,2.09,0,0,0,2.13,2.24A1.77,1.77,0,0,0,23,3.38V2Z"/></g></g></svg>