<svg xmlns="http://www.w3.org/2000/svg" viewBox="0 0 8 12"><defs><style>.cls-1{fill:#136e38;fill-rule:evenodd;}</style></defs><title>SortArrows</title><g id="Layer_2" data-name="Layer 2"><g id="Layer_1-2" data-name="Layer 1"><path class="cls-1" d="M7.94,7.46A.27.27,0,0,1,8,7.62a.27.27,0,0,1-.06.17l-3.58,4a.47.47,0,0,1-.72,0l-3.58-4a.26.26,0,0,1,0-.33.41.41,0,0,1,.35-.17H7.59A.41.41,0,0,1,7.94,7.46Z"/><path class="cls-1" d="M.06,4.54A.27.27,0,0,1,0,4.38a.27.27,0,0,1,.06-.17l3.58-4a.47.47,0,0,1,.72,0l3.58,4a.26.26,0,0,1,0,.33.41.41,0,0,1-.35.17H.41A.41.41,0,0,1,.06,4.54Z"/></g></g></svg>